PathFileType	4	(X/Y/Z)	 static.trc
DataRate	CameraRate	NumFrames	NumMarkers	Units	OrigDataRate	OrigDataStartFrame	OrigNumFrames
200	200	8	43	m	200	44	76
Frame#	Time	C7			LSH			RSH			MAN			RASI			LASI			HIPR			HIPL			RPSI			LPSI			COX			RTHI1			RTHI2			RTHI3			RTHI4			RLKN			RMKN			RSHA1			RSHA2			RSHA3			RSHA4			RLMAL			RMMAL			RHEEL			RMET5			RMET1			RTOE			LTHI1			LTHI2			LTHI3			LTHI4			LLKN			LMKN			LSHA1			LSHA2			LSHA3			LSHA4			LLMAL			LMMAL			LHEEL			LMET5			LMET1			LTOE			
		X1	Y1	Z1	X2	Y2	Z2	X3	Y3	Z3	X4	Y4	Z4	X5	Y5	Z5	X6	Y6	Z6	X7	Y7	Z7	X8	Y8	Z8	X9	Y9	Z9	X10	Y10	Z10	X11	Y11	Z11	X12	Y12	Z12	X13	Y13	Z13	X14	Y14	Z14	X15	Y15	Z15	X16	Y16	Z16	X17	Y17	Z17	X18	Y18	Z18	X19	Y19	Z19	X20	Y20	Z20	X21	Y21	Z21	X22	Y22	Z22	X23	Y23	Z23	X24	Y24	Z24	X25	Y25	Z25	X26	Y26	Z26	X27	Y27	Z27	X28	Y28	Z28	X29	Y29	Z29	X30	Y30	Z30	X31	Y31	Z31	X32	Y32	Z32	X33	Y33	Z33	X34	Y34	Z34	X35	Y35	Z35	X36	Y36	Z36	X37	Y37	Z37	X38	Y38	Z38	X39	Y39	Z39	X40	Y40	Z40	X41	Y41	Z41	X42	Y42	Z42	X43	Y43	Z43	
44	0.2200	-0.363308	1.352814	-0.547595	-0.291894	1.321010	-0.705056	-0.287602	1.307404	-0.389638	-0.249104	1.276070	-0.548734	-0.241426	0.856040	-0.436374	-0.260273	0.861995	-0.667219	-0.304709	0.925647	-0.401550	-0.334312	0.905739	-0.693924	-0.410366	0.897033	-0.485721	-0.421107	0.891981	-0.568273	-0.418970	0.894937	-0.531617	-0.351443	0.688892	-0.355770	-0.337555	0.630658	-0.352751	-0.274043	0.641558	-0.354178	-0.279488	0.702820	-0.357748	-0.328239	0.447354	-0.364560	-0.337230	0.418856	-0.495728	-0.387774	0.311279	-0.334753	-0.388938	0.269725	-0.344949	-0.328465	0.271751	-0.340748	-0.331543	0.310885	-0.335118	-0.338541	0.067729	-0.357948	-0.329389	0.078894	-0.440470	-0.394955	0.038536	-0.394046	-0.231740	0.033488	-0.340272	-0.200183	0.044063	-0.414987	-0.175537	0.035436	-0.413218	-0.374471	0.681057	-0.723577	-0.356294	0.622146	-0.726987	-0.293048	0.635980	-0.733583	-0.303895	0.695074	-0.732012	-0.348206	0.433421	-0.717446	-0.328304	0.417732	-0.592047	-0.409046	0.266688	-0.729515	-0.408218	0.226660	-0.721865	-0.348313	0.231013	-0.732760	-0.356732	0.273505	-0.740346	-0.351611	0.067854	-0.720187	-0.336757	0.086687	-0.640189	-0.406275	0.035667	-0.670970	-0.260218	0.033689	-0.745963	-0.216767	0.047656	-0.678758	-0.188587	0.035992	-0.679463	
45	0.2250	-0.363456	1.352927	-0.547808	-0.292012	1.321003	-0.705108	-0.287710	1.307424	-0.389678	-0.249168	1.276076	-0.548791	-0.241423	0.856050	-0.436431	-0.260289	0.862015	-0.667202	-0.304770	0.925670	-0.401526	-0.334331	0.905738	-0.693907	-0.410391	0.896939	-0.485693	-0.421142	0.891951	-0.568268	-0.419010	0.894923	-0.531615	-0.351441	0.688873	-0.355812	-0.337540	0.630661	-0.352751	-0.274003	0.641548	-0.354170	-0.279484	0.702821	-0.357742	-0.328195	0.447355	-0.364564	-0.337183	0.418840	-0.495724	-0.387749	0.311274	-0.334765	-0.388897	0.269763	-0.344888	-0.328439	0.271744	-0.340744	-0.331496	0.310879	-0.335083	-0.338515	0.067747	-0.357946	-0.329375	0.078886	-0.440467	-0.394959	0.038557	-0.394068	-0.231727	0.033375	-0.340141	-0.200164	0.044053	-0.415003	-0.175521	0.035462	-0.413222	-0.374419	0.681031	-0.723562	-0.356218	0.622137	-0.726969	-0.292952	0.636024	-0.733574	-0.303842	0.695088	-0.731994	-0.348098	0.433420	-0.717463	-0.328194	0.417726	-0.592053	-0.408916	0.266791	-0.729551	-0.408162	0.226663	-0.721856	-0.348244	0.231025	-0.732765	-0.356655	0.273510	-0.740341	-0.351597	0.067849	-0.720181	-0.336718	0.086709	-0.640178	-0.406267	0.035665	-0.670950	-0.260195	0.033705	-0.745972	-0.216734	0.047660	-0.678737	-0.188568	0.035981	-0.679438	
46	0.2300	-0.363407	1.352893	-0.547557	-0.292114	1.321001	-0.705166	-0.287787	1.307446	-0.389738	-0.249230	1.276102	-0.548828	-0.241418	0.856059	-0.436498	-0.260302	0.862058	-0.667181	-0.304848	0.925674	-0.401530	-0.334363	0.905748	-0.693894	-0.410431	0.896928	-0.485700	-0.421182	0.891895	-0.568274	-0.419039	0.894880	-0.531626	-0.351446	0.688886	-0.355773	-0.337522	0.630650	-0.352740	-0.274021	0.641572	-0.354183	-0.279465	0.702812	-0.357743	-0.328135	0.447339	-0.364581	-0.337134	0.418825	-0.495747	-0.387732	0.311261	-0.334787	-0.388875	0.269756	-0.344918	-0.328425	0.271734	-0.340738	-0.331452	0.310892	-0.335097	-0.338497	0.067739	-0.357989	-0.329365	0.078853	-0.440465	-0.394928	0.038559	-0.394083	-0.231705	0.033357	-0.340112	-0.200136	0.044059	-0.415009	-0.175490	0.035424	-0.413216	-0.374360	0.681028	-0.723574	-0.356153	0.622154	-0.726981	-0.292882	0.636063	-0.733588	-0.303776	0.695117	-0.731999	-0.347994	0.433408	-0.717460	-0.328062	0.417742	-0.592078	-0.408873	0.266768	-0.729526	-0.408086	0.226677	-0.721840	-0.348167	0.231022	-0.732781	-0.356583	0.273528	-0.740360	-0.351577	0.067863	-0.720150	-0.336692	0.086714	-0.640129	-0.406312	0.035711	-0.671007	-0.260195	0.033718	-0.745965	-0.216719	0.047647	-0.678720	-0.188567	0.035981	-0.679437	
47	0.2350	-0.363488	1.352892	-0.547632	-0.292212	1.320986	-0.705225	-0.287893	1.307494	-0.389796	-0.249344	1.276086	-0.548891	-0.241420	0.856063	-0.436551	-0.260326	0.862068	-0.667142	-0.304913	0.925692	-0.401516	-0.334379	0.905746	-0.693874	-0.410465	0.896873	-0.485665	-0.421205	0.891867	-0.568264	-0.419082	0.894848	-0.531626	-0.351431	0.688860	-0.355795	-0.337480	0.630638	-0.352765	-0.273985	0.641565	-0.354176	-0.279465	0.702825	-0.357736	-0.328110	0.447325	-0.364567	-0.337069	0.418820	-0.495755	-0.387696	0.311259	-0.334808	-0.388845	0.269751	-0.344970	-0.328385	0.271758	-0.340737	-0.331433	0.310877	-0.335104	-0.338501	0.067748	-0.357954	-0.329354	0.078869	-0.440469	-0.394921	0.038564	-0.394087	-0.231679	0.033341	-0.340118	-0.200124	0.044037	-0.415006	-0.175462	0.035402	-0.413226	-0.374321	0.681019	-0.723569	-0.356062	0.622135	-0.726985	-0.292820	0.636071	-0.733575	-0.303732	0.695128	-0.731988	-0.347864	0.433401	-0.717462	-0.327959	0.417773	-0.592068	-0.408784	0.266788	-0.729527	-0.408028	0.226669	-0.721837	-0.348107	0.231023	-0.732791	-0.356489	0.273474	-0.740358	-0.351574	0.067857	-0.720143	-0.336722	0.086660	-0.640110	-0.406314	0.035743	-0.671007	-0.260185	0.033726	-0.745942	-0.216713	0.047633	-0.678710	-0.188537	0.035967	-0.679421	
48	0.2400	-0.363517	1.352854	-0.547541	-0.292327	1.320991	-0.705279	-0.287990	1.307501	-0.389839	-0.249423	1.276100	-0.548937	-0.241436	0.856061	-0.436568	-0.260355	0.862081	-0.667123	-0.304963	0.925703	-0.401487	-0.334407	0.905774	-0.693900	-0.410506	0.896833	-0.485692	-0.421243	0.891825	-0.568275	-0.419110	0.894817	-0.531607	-0.351424	0.688846	-0.355777	-0.337476	0.630625	-0.352746	-0.273977	0.641596	-0.354153	-0.279457	0.702837	-0.357734	-0.328047	0.447309	-0.364613	-0.337022	0.418813	-0.495772	-0.387675	0.311272	-0.334794	-0.388825	0.269786	-0.344929	-0.328372	0.271730	-0.340744	-0.331402	0.310862	-0.335090	-0.338490	0.067729	-0.357959	-0.329336	0.078849	-0.440492	-0.394900	0.038558	-0.394074	-0.231682	0.033335	-0.340090	-0.200106	0.044038	-0.415018	-0.175450	0.035370	-0.413217	-0.374259	0.680999	-0.723582	-0.356007	0.622132	-0.726975	-0.292748	0.636081	-0.733575	-0.303683	0.695132	-0.731986	-0.347759	0.433400	-0.717468	-0.327857	0.417771	-0.592073	-0.408741	0.266822	-0.729542	-0.407960	0.226688	-0.721815	-0.348026	0.231029	-0.732791	-0.356397	0.273460	-0.740375	-0.351584	0.067855	-0.720120	-0.336756	0.086658	-0.640050	-0.406311	0.035723	-0.671003	-0.260168	0.033719	-0.745932	-0.216703	0.047613	-0.678682	-0.188531	0.035959	-0.679411	
49	0.2450	-0.363646	1.352901	-0.547641	-0.292410	1.320986	-0.705323	-0.288075	1.307544	-0.389886	-0.249492	1.276099	-0.548989	-0.241421	0.856080	-0.436651	-0.260382	0.862109	-0.667117	-0.305013	0.925678	-0.401519	-0.334456	0.905777	-0.693893	-0.410546	0.896800	-0.485694	-0.421268	0.891795	-0.568282	-0.419148	0.894785	-0.531609	-0.351435	0.688828	-0.355776	-0.337454	0.630626	-0.352750	-0.273947	0.641592	-0.354165	-0.279459	0.702828	-0.357737	-0.328012	0.447288	-0.364616	-0.336993	0.418809	-0.495772	-0.387662	0.311286	-0.334795	-0.388799	0.269758	-0.344951	-0.328310	0.271708	-0.340757	-0.331389	0.310860	-0.335113	-0.338486	0.067756	-0.357952	-0.329335	0.078851	-0.440516	-0.394907	0.038557	-0.394085	-0.231644	0.033296	-0.340113	-0.200097	0.044032	-0.415015	-0.175438	0.035361	-0.413217	-0.374230	0.680988	-0.723574	-0.355929	0.622129	-0.726983	-0.292699	0.636085	-0.733573	-0.303644	0.695137	-0.731972	-0.347638	0.433394	-0.717460	-0.327791	0.417768	-0.592062	-0.408619	0.266923	-0.729607	-0.407885	0.226696	-0.721827	-0.347939	0.230998	-0.732791	-0.356311	0.273475	-0.740390	-0.351554	0.067857	-0.720089	-0.336747	0.086626	-0.640018	-0.406307	0.035725	-0.670983	-0.260168	0.033720	-0.745931	-0.216685	0.047598	-0.678680	-0.188505	0.035950	-0.679391	
50	0.2500	-0.363732	1.352901	-0.547687	-0.292570	1.321029	-0.705395	-0.288169	1.307565	-0.389941	-0.249599	1.276110	-0.549052	-0.241445	0.856087	-0.436610	-0.260405	0.862125	-0.667085	-0.305089	0.925714	-0.401488	-0.334496	0.905801	-0.693900	-0.410586	0.896763	-0.485668	-0.421313	0.891763	-0.568266	-0.419197	0.894768	-0.531614	-0.351426	0.688834	-0.355747	-0.337441	0.630594	-0.352742	-0.273946	0.641585	-0.354164	-0.279457	0.702847	-0.357711	-0.327987	0.447286	-0.364610	-0.336941	0.418794	-0.495777	-0.387635	0.311269	-0.334814	-0.388786	0.269733	-0.344974	-0.328291	0.271697	-0.340752	-0.331341	0.310861	-0.335111	-0.338456	0.067744	-0.357963	-0.329326	0.078827	-0.440510	-0.394904	0.038576	-0.394101	-0.231643	0.033288	-0.340100	-0.200089	0.044033	-0.415004	-0.175419	0.035358	-0.413216	-0.374194	0.680960	-0.723573	-0.355893	0.622117	-0.726950	-0.292656	0.636089	-0.733557	-0.303625	0.695148	-0.731963	-0.347537	0.433394	-0.717450	-0.327705	0.417782	-0.592061	-0.408559	0.266881	-0.729551	-0.407831	0.226657	-0.721801	-0.347874	0.230997	-0.732785	-0.356222	0.273464	-0.740389	-0.351537	0.067861	-0.720083	-0.336706	0.086648	-0.639970	-0.406301	0.035760	-0.670970	-0.260153	0.033744	-0.745917	-0.216672	0.047585	-0.678644	-0.188496	0.035951	-0.679371	
51	0.2550	-0.363842	1.352881	-0.547721	-0.292672	1.321033	-0.705437	-0.288249	1.307597	-0.389989	-0.249718	1.276118	-0.549117	-0.241496	0.856094	-0.436594	-0.260437	0.862141	-0.667053	-0.305197	0.925793	-0.401454	-0.334540	0.905792	-0.693881	-0.410644	0.896737	-0.485662	-0.421373	0.891738	-0.568242	-0.419235	0.894704	-0.531620	-0.351431	0.688818	-0.355761	-0.337432	0.630581	-0.352749	-0.273942	0.641590	-0.354146	-0.279457	0.702836	-0.357727	-0.327945	0.447277	-0.364632	-0.336886	0.418801	-0.495795	-0.387614	0.311252	-0.334834	-0.388755	0.269747	-0.344972	-0.328269	0.271697	-0.340755	-0.331300	0.310848	-0.335134	-0.338471	0.067739	-0.357957	-0.329380	0.078759	-0.440525	-0.394899	0.038577	-0.394106	-0.231640	0.033297	-0.340108	-0.200096	0.044027	-0.415004	-0.175413	0.035350	-0.413210	-0.374172	0.680927	-0.723580	-0.355830	0.622105	-0.726956	-0.292612	0.636096	-0.733546	-0.303608	0.695150	-0.731950	-0.347428	0.433397	-0.717457	-0.327637	0.417792	-0.592035	-0.408443	0.266953	-0.729596	-0.407756	0.226727	-0.721855	-0.347793	0.231017	-0.732782	-0.356145	0.273480	-0.740421	-0.351510	0.067915	-0.720073	-0.336760	0.086611	-0.639934	-0.406294	0.035756	-0.670960	-0.260138	0.033732	-0.745904	-0.216664	0.047573	-0.678640	-0.188470	0.035947	-0.679372	
